<svg width="174" height="174" viewBox="0 0 174 174" fill="none" xmlns="http://www.w3.org/2000/svg">
<path fill-rule="evenodd" clip-rule="evenodd" d="M39.1845 15.4396C53.3378 5.98262 69.9776 0.934998 86.9996 0.934998C109.825 0.934998 131.716 10.0025 147.857 26.1429C163.997 42.2832 173.065 64.1741 173.065 87C173.065 104.022 168.017 120.662 158.56 134.815C149.103 148.968 135.662 160 119.935 166.514C104.209 173.028 86.9041 174.732 70.2092 171.411C53.5142 168.09 38.1789 159.894 26.1425 147.857C14.1061 135.821 5.90916 120.485 2.58832 103.79C-0.732513 87.0955 0.971861 69.7907 7.48592 54.0643C14 38.338 25.0311 24.8965 39.1845 15.4396ZM86.9996 3.065C70.3988 3.065 54.1709 7.9877 40.3678 17.2106C26.5648 26.4335 15.8066 39.5423 9.45378 54.8795C3.10094 70.2166 1.43875 87.0931 4.6774 103.375C7.91605 119.657 15.9101 134.612 27.6486 146.351C39.3871 158.09 54.3429 166.084 70.6247 169.322C86.9065 172.561 103.783 170.899 119.12 164.546C134.457 158.193 147.566 147.435 156.789 133.632C166.012 119.829 170.935 103.601 170.935 87C170.935 64.7391 162.091 43.3899 146.351 27.649C130.61 11.9081 109.261 3.065 86.9996 3.065Z" fill="black"/>
<path d="M87.5391 24.8C90.6706 24.8 93.2091 22.2614 93.2091 19.13C93.2091 15.9985 90.6706 13.46 87.5391 13.46C84.4077 13.46 81.8691 15.9985 81.8691 19.13C81.8691 22.2614 84.4077 24.8 87.5391 24.8Z" stroke="black" stroke-width="2.13" stroke-linejoin="round"/>
</svg>
