<svg width="282" height="282" viewBox="0 0 282 282" fill="none" xmlns="http://www.w3.org/2000/svg">
<path d="M140.685 45.4269C144.647 45.4269 147.858 42.2156 147.858 38.2542C147.858 34.2929 144.647 31.0815 140.685 31.0815C136.724 31.0815 133.513 34.2929 133.513 38.2542C133.513 42.2156 136.724 45.4269 140.685 45.4269Z" stroke="black" stroke-width="2.126" stroke-miterlimit="22.9256"/>
<path d="M11.9545 114.134L114.134 11.9544C128.983 -2.89431 153.143 -2.89431 167.992 11.9544L270.046 114.008C284.894 128.857 284.894 153.017 270.046 167.866L167.992 269.92C153.143 284.768 128.983 284.768 114.134 269.92L11.9545 167.866C-2.76837 153.143 -2.76837 128.857 11.9545 114.134Z" stroke="#EAE1E1" stroke-width="1.4173" stroke-miterlimit="22.9256"/>
<path d="M16.988 119.167L119.041 17.1137C131.122 5.03339 150.752 5.03339 162.833 17.1137L264.886 119.167C276.967 131.248 276.967 150.878 264.886 162.958L162.833 265.012C150.752 277.092 131.122 277.092 119.041 265.012L16.988 162.958C5.03347 150.878 5.03347 131.122 16.988 119.167Z" stroke="black" stroke-width="2.126" stroke-miterlimit="22.9256"/>
</svg>
