<svg width="215" height="215" viewBox="0 0 215 215" fill="none" xmlns="http://www.w3.org/2000/svg">
<path d="M107.421 20.2607C108.542 20.2607 109.638 20.5932 110.571 21.2162C111.503 21.8392 112.23 22.7248 112.659 23.7608C113.088 24.7969 113.2 25.9369 112.982 27.0368C112.763 28.1367 112.223 29.147 111.43 29.9399C110.637 30.7329 109.627 31.2729 108.527 31.4917C107.427 31.7105 106.287 31.5982 105.251 31.169C104.215 30.7399 103.329 30.0132 102.706 29.0807C102.083 28.1483 101.751 27.0521 101.751 25.9306C101.751 24.4269 102.348 22.9847 103.411 21.9214C104.475 20.858 105.917 20.2607 107.421 20.2607V20.2607ZM9.17065 90.2607L90.3007 9.17065C94.921 4.57788 101.171 2 107.686 2C114.2 2 120.45 4.57788 125.071 9.17065L206.191 90.2906C210.783 94.911 213.361 101.161 213.361 107.676C213.361 114.19 210.783 120.44 206.191 125.061L125.061 206.171C120.44 210.763 114.19 213.341 107.676 213.341C101.161 213.341 94.911 210.763 90.2906 206.171L9.17065 125.021C4.57788 120.4 2 114.15 2 107.636C2 101.121 4.57788 94.871 9.17065 90.2507V90.2607Z" stroke="black" stroke-width="2.13" stroke-miterlimit="22.93"/>
</svg>
